<?xml version="1.0" encoding="UTF-8"?>
<svg width="180px" height="180px" viewBox="0 0 180 180" version="1.1" xmlns="http://www.w3.org/2000/svg" xmlns:xlink="http://www.w3.org/1999/xlink">
    <title>sheenflow</title>
    <g id="sheenflow" stroke="none" stroke-width="1" fill="none" fill-rule="evenodd">
        <path d="M24.3518762,70.0284701 C40.5705412,65.211558 51.2799432,60.0254841 56.480082,54.4702483 C61.6802209,48.9150126 65.464054,38.6181658 67.8315812,23.5797081 L110.015245,23.5797081 C108.365199,39.7938791 106.538977,50.8953717 104.536577,56.8841858 C100.025159,70.3770229 92.200605,78.7781752 86.3610477,84.6105116 C80.6788319,90.2857011 71.9512351,97.6801556 58.8014133,102.304488 C57.5848864,102.732298 56.1691717,103.163256 54.5542692,103.597361 C50.1077753,104.792632 40.040311,106.639228 24.3518762,109.13715 L24.3518762,70.0284701 Z" id="Path-11" fill="#8323EF"></path>
        <polygon id="Path-12" fill="#33C89B" points="67.1835604 109.13715 110.015245 109.13715 110.015245 153.383036 67.1835604 153.383036"></polygon>
        <polygon id="Path-13" fill="#33C89B" points="115.183215 71.7382361 115.183215 153.383036 156.144524 153.383036 156.144524 71.7382361"></polygon>
    </g>
</svg>